# xmcd CD database file
#
# Track frame offsets:
#	150
#	24490
#	49922
#	72980
#	96127
#	114572
#
# Disc length: 1775 seconds
#
# Revision: 1
# Processed by: cddbd v1.5.2PL0 Copyright (c) Steve Scherf et al.
# Submitted via: CDex 1.70beta2
#
DISCID=4c06ed06
DTITLE=上田まり - room
DYEAR=1998
DGENRE=JPop
TTITLE0=誰もいない部屋
TTITLE1=伝えたい (アルバム・バージョン)
TTITLE2=せつなかった日
TTITLE3=夢
TTITLE4=恋をまとった女の子は
TTITLE5=十五夜には
EXTD=YEAR: 1998
EXTT0=
EXTT1=
EXTT2=
EXTT3=
EXTT4=
EXTT5=
PLAYORDER=
